<svg xmlns="http://www.w3.org/2000/svg" xmlns:xlink="http://www.w3.org/1999/xlink" width="28.149" height="47" viewBox="0 0 28.149 47"><defs><clipPath id="a"><rect width="28.149" height="47" fill="#26d0d0"/></clipPath></defs><g clip-path="url(#a)"><path d="M25.279,0,2.594.036A3.364,3.364,0,0,0,0,2.857l0,41.13a3.276,3.276,0,0,0,3.022,3.005C13.6,46.992,13.6,47,24.978,47a3.245,3.245,0,0,0,3.169-3.169l0-40.671A3.171,3.171,0,0,0,25.279,0m-10.7,45.412c-3.263.516-3.8-4.126-1.167-4.723,3.449-.784,4.247,4.236,1.167,4.723m9.933-6.3H3.639l-.232-.232V8.115l.232-.232h20.87Z" fill="#26d0d0"/><path d="M84.328,272.674a1.314,1.314,0,0,1-.41-2.6,1.314,1.314,0,1,1,.41,2.6" transform="translate(-70.036 -228.31)" fill="#26d0d0"/></g></svg>