<svg xmlns="http://www.w3.org/2000/svg" xmlns:xlink="http://www.w3.org/1999/xlink" width="46.918" height="47" viewBox="0 0 46.918 47"><defs><clipPath id="a"><rect width="46.918" height="47" fill="#26d0d0"/></clipPath></defs><g clip-path="url(#a)"><path d="M46.883,21.873c-.907-17.279-20.441-27.5-35.3-18.587A23.476,23.476,0,0,0,3.23,35.055L0,47c4.182-.728,8.233-2.118,12.371-3.069A23.455,23.455,0,0,0,46.883,21.873M12.941,39.413,5.86,41.287l1.887-6.818c-5.9-8.978-3.973-20.724,4.893-26.906,11.308-7.887,27.3-1.323,29.774,12.185,3.075,16.791-15.26,28.809-29.472,19.665" transform="translate(0 0)" fill="#26d0d0"/><path d="M82.156,85.668a9.558,9.558,0,0,1,2.279,0c.4.116.735.793.907,1.144a40.492,40.492,0,0,1,1.836,4.759c0,1.366-1.964,2.372-1.906,3.212.09,1.284,3.4,4.532,4.493,5.331.654.477,3.5,2.2,4.153,2.017.723-.2,1.847-2.3,2.473-2.807.427-.346.79-.23,1.266-.069a38.566,38.566,0,0,1,4.657,2.227c.72.437.6,1.158.5,1.918-.466,3.425-4.286,4.711-7.322,4.175C89.157,106.452,78.8,97.8,78.969,90.987c.04-1.634,1.428-5,3.187-5.318" transform="translate(-67.399 -73.058)" fill="#26d0d0"/></g></svg>