<svg viewBox="127.44 347.76 827.28 384.47999999999996" xmlns="http://www.w3.org/2000/svg" data-name="Capa 1" id="Capa_1" style="max-height: 500px" width="827.28" height="384.47999999999996">
  <defs>
    <style>
      .cls-1 {
        fill: #1522cd;
      }
    </style>
  </defs>
  <path d="M360.29,484.14l-.16-4.84c-1.31-40.51-11.38-71.22-29.94-91.28-18.7-20.2-45.93-30.44-80.92-30.44-16.32,0-31.59,2.16-45.39,6.43-14.03,4.34-26.23,11.39-36.28,20.93-10.05,9.54-18,22.13-23.65,37.4-5.59,15.11-8.42,33.84-8.42,55.67v123.4c0,21.84,2.83,40.57,8.42,55.67,5.64,15.27,13.6,27.86,23.65,37.41,10.06,9.55,22.27,16.6,36.28,20.93,13.79,4.27,29.06,6.43,45.39,6.43,13.24,0,25.33-3.29,35.93-9.78,8.27-5.07,16.3-11.6,23.93-19.47l8.56,24.46h42.45v-186.34h-121.77v63.9h46.39v16.36c0,13.78-3.24,24.58-9.65,32.12-6.29,7.42-14.75,11.02-25.84,11.02-12.16,0-21.74-2.99-28.48-8.88-6.55-5.73-9.88-17.58-9.88-35.21v-140.62c0-17.63,3.32-29.48,9.88-35.21h0c6.74-5.9,16.32-8.89,28.48-8.89,10.78,0,19.17,3.62,25.63,11.06,6.54,7.54,9.85,22.03,9.85,43.08v4.69h75.53Z" class="cls-1"/>
  <path d="M661.04,647.82c-6.27-2.76-12.31-5.97-17.99-9.56,8-13.19,15.09-26.52,21.09-39.68,6.55-14.38,12.62-28.96,18.05-43.33l1.81-4.8-62.5-17.45-1.29,4.46c-3.42,11.8-7.82,23.12-13.08,33.64-4.52,9.04-9.42,18.28-14.62,27.55-19.6-18.95-37.78-39.74-54.15-61.91,6.89-5.54,13.76-11.11,20.45-16.6,8.18-6.71,15.56-14.09,21.95-21.95,6.44-7.92,11.8-16.64,15.94-25.92,4.24-9.49,6.39-20.27,6.39-32.04s-2.22-22.35-6.6-32.47c-4.37-10.08-10.43-18.95-18-26.36-7.57-7.4-16.7-13.29-27.11-17.5-10.41-4.19-21.94-6.32-34.28-6.32s-24.04,1.76-35.12,5.24c-11.26,3.53-21.33,9.16-29.92,16.74-8.6,7.59-15.52,17.23-20.56,28.65-5.02,11.39-7.57,24.9-7.57,40.15s2.53,28.68,7.52,40.98c4.43,10.93,10.79,22.77,18.92,35.23-7.23,4.99-14.02,10.15-20.23,15.39-7.49,6.33-13.98,13.58-19.29,21.55-5.33,7.99-9.55,17.01-12.54,26.82-2.99,9.81-4.51,20.97-4.51,33.17,0,16.56,2.88,31.22,8.56,43.57,5.69,12.39,13.85,23.01,24.24,31.56,10.33,8.5,22.89,14.92,37.32,19.06,14.24,4.09,30.04,6.16,46.97,6.16,17.77,0,34.48-3.26,49.66-9.7,13.8-5.85,26.26-13.93,37.08-24.03,6.92,5.89,13.56,10.86,19.79,14.82,7.23,4.61,14.5,8.37,21.61,11.17,7.14,2.82,14.47,4.84,21.79,6.01,7.24,1.15,15.21,1.73,23.69,1.73h4.69v-67.25l-4.19-.45c-8.43-.9-16.49-3.03-23.96-6.33ZM494.82,415.98c4.36-5.95,10.4-8.84,18.46-8.84,4.34,0,8.14.8,11.3,2.38,3.18,1.59,5.88,3.74,8,6.38,2.21,2.76,3.88,5.76,4.97,8.89,1.1,3.17,1.66,6.44,1.66,9.71,0,6.3-1.14,12-3.4,16.94-2.37,5.17-5.43,9.94-9.09,14.19-3.82,4.43-8.15,8.68-12.85,12.62-3.41,2.86-6.75,5.76-9.99,8.67-4.35-7.56-8.01-14.71-10.93-21.32-3.38-7.64-5.1-16.34-5.1-25.84s2.35-17.45,6.98-23.77ZM537.15,652.88h0c-7.31,3.37-15.18,5.07-23.39,5.07-5.83,0-11.5-.96-16.86-2.84-5.29-1.85-10.07-4.68-14.21-8.4-4.1-3.67-7.4-8.35-9.83-13.93-2.44-5.59-3.67-12.28-3.67-19.89,0-9.15,2.03-16.59,6.04-22.12,3.56-4.92,8.06-9.71,13.4-14.27,9.36,11.82,19.21,23.42,29.31,34.52,10.15,11.17,21.39,22.17,33.44,32.74-3.87,3.48-8.63,6.53-14.24,9.11Z" class="cls-1"/>
  <path d="M823.3,594.63h46.39v16.36c0,13.78-3.25,24.58-9.65,32.12-6.3,7.42-14.75,11.02-25.84,11.02-12.16,0-21.74-2.99-28.48-8.88-6.56-5.74-9.88-17.58-9.88-35.21v-140.62c0-17.63,3.32-29.48,9.88-35.21,6.73-5.9,16.32-8.88,28.48-8.88,10.78,0,19.17,3.62,25.63,11.06,6.54,7.54,9.85,22.03,9.85,43.08v4.69h75.53l-.16-4.84c-1.31-40.51-11.38-71.22-29.94-91.28-18.7-20.2-45.93-30.44-80.92-30.44-16.32,0-31.59,2.16-45.39,6.43-14.03,4.34-26.23,11.39-36.28,20.93-10.05,9.54-18,22.13-23.65,37.4-5.59,15.11-8.42,33.84-8.42,55.67v123.4c0,21.84,2.83,40.57,8.42,55.67,5.64,15.27,13.6,27.86,23.65,37.41,10.06,9.55,22.26,16.6,36.28,20.93,13.79,4.27,29.06,6.43,45.39,6.43,13.24,0,25.33-3.29,35.93-9.78,8.28-5.07,16.3-11.6,23.93-19.47l8.56,24.46h42.45v-186.34h-121.77v63.9Z" class="cls-1"/>
</svg>