<?xml version="1.0" encoding="UTF-8"?>
<svg id="Capa_3" data-name="Capa 3" xmlns="http://www.w3.org/2000/svg" viewBox="0 0 256 256">
  <defs>
    <style>
      .cls-1 {
        fill: #2c2c2c;
      }
    </style>
  </defs>
  <polygon class="cls-1" points="190.71 65.29 136.78 181.09 74.91 119.22 190.71 65.29"/>
  <polygon class="cls-1" points="56.16 199.84 78.85 130.97 125.03 177.15 56.16 199.84"/>
  <polygon class="cls-1" points="128 224.52 119.2 207.08 136.8 207.08 128 224.52"/>
  <path class="cls-1" d="M128,24.49c13.98,0,27.53,2.74,40.29,8.13,12.33,5.21,23.4,12.68,32.9,22.19,9.51,9.51,16.97,20.58,22.19,32.9,5.4,12.76,8.13,26.31,8.13,40.29s-2.74,27.53-8.13,40.29c-5.21,12.33-12.68,23.4-22.19,32.9-9.51,9.51-20.58,16.97-32.9,22.19-12.76,5.4-26.31,8.13-40.29,8.13s-27.53-2.74-40.29-8.13c-12.33-5.21-23.4-12.68-32.9-22.19-9.51-9.51-16.97-20.58-22.19-32.9-5.4-12.76-8.13-26.31-8.13-40.29s2.74-27.53,8.13-40.29c5.21-12.33,12.68-23.4,22.19-32.9,9.51-9.51,20.58-16.97,32.9-22.19,12.76-5.4,26.31-8.13,40.29-8.13M128,19.52c-59.91,0-108.48,48.57-108.48,108.48s48.57,108.48,108.48,108.48,108.48-48.57,108.48-108.48S187.91,19.52,128,19.52h0Z"/>
  <polygon class="cls-1" points="224.52 128 207.08 136.8 207.08 119.2 224.52 128"/>
  <polygon class="cls-1" points="128 31.48 136.8 48.92 119.2 48.92 128 31.48"/>
  <polygon class="cls-1" points="31.48 128 48.92 119.2 48.92 136.8 31.48 128"/>
</svg>