<?xml version="1.0" encoding="UTF-8"?>
<svg
  id="Capa_1"
  data-name="Capa 1"
  xmlns="http://www.w3.org/2000/svg"
  viewBox="224.77 356 1470.39 366.65"
  preserveAspectRatio="xMinYMid meet"
>
  <defs>
    <style>
      .cls-1 {
        fill: #1522cd;
      }
    </style>
  </defs>
  <path class="cls-1" d="M560.58,662.55c2.03-3.65,3.05-7.73,3.05-12.24s-1.02-8.65-3.05-12.28c-2.03-3.63-4.85-6.47-8.45-8.53-3.6-2.06-7.63-3.09-12.09-3.09h-22.72v47.79h22.72c4.46,0,8.49-1.03,12.09-3.09,3.6-2.06,6.42-4.91,8.45-8.56ZM547.27,663.65c-2.13,1.3-4.55,1.95-7.24,1.95h-13.6v-30.58h13.6c2.69,0,5.11.66,7.24,1.99,2.13,1.32,3.8,3.15,5,5.48,1.2,2.33,1.8,4.94,1.8,7.83s-.6,5.58-1.8,7.9c-1.2,2.33-2.87,4.14-5,5.44Z"/>
  <rect class="cls-1" x="575.02" y="626.42" width="9.12" height="47.79"/>
  <path class="cls-1" d="M611.82,636.56c2.13-1.37,4.55-2.06,7.24-2.06,2.35,0,4.52.54,6.51,1.62,1.98,1.08,3.64,2.6,4.96,4.56l10.51-.15c-1.76-4.61-4.6-8.27-8.49-10.99-3.9-2.72-8.39-4.08-13.49-4.08-4.46,0-8.49,1.08-12.09,3.23-3.6,2.16-6.42,5.12-8.45,8.9-2.03,3.77-3.05,8.01-3.05,12.72s1.02,8.94,3.05,12.72c2.03,3.77,4.85,6.74,8.45,8.9,3.6,2.16,7.63,3.24,12.09,3.24,4.02,0,7.69-.86,11.03-2.57,3.33-1.71,6.06-4.14,8.2-7.28,2.13-3.14,3.49-6.71,4.08-10.73.2-1.18.29-2.6.29-4.26,0-1.42-.1-2.7-.29-3.82h-23.31v8.6h13.53c-.88,3.28-2.54,5.93-4.96,7.94-2.43,2.01-5.28,3.01-8.56,3.01-2.7,0-5.11-.69-7.24-2.06-2.13-1.37-3.8-3.25-5-5.62-1.2-2.38-1.8-5.06-1.8-8.05s.6-5.69,1.8-8.09c1.2-2.4,2.87-4.29,5-5.66Z"/>
  <path class="cls-1" d="M663.28,671.92c3.6,2.16,7.63,3.24,12.09,3.24s8.49-1.08,12.09-3.24c3.6-2.16,6.42-5.12,8.45-8.9,2.03-3.77,3.05-8.01,3.05-12.72s-1.02-8.94-3.05-12.72c-2.03-3.77-4.85-6.74-8.45-8.9-3.6-2.16-7.63-3.23-12.09-3.23s-8.49,1.08-12.09,3.23c-3.6,2.16-6.42,5.12-8.45,8.9-2.03,3.77-3.05,8.01-3.05,12.72s1.02,8.94,3.05,12.72c2.03,3.77,4.85,6.74,8.45,8.9ZM663.13,642.22c1.2-2.4,2.87-4.29,5-5.66,2.13-1.37,4.55-2.06,7.24-2.06s5.11.69,7.24,2.06c2.13,1.37,3.81,3.26,5.04,5.66,1.22,2.4,1.84,5.1,1.84,8.09s-.61,5.67-1.84,8.05c-1.23,2.38-2.9,4.25-5.04,5.62-2.13,1.37-4.55,2.06-7.24,2.06s-5.11-.69-7.24-2.06c-2.13-1.37-3.8-3.25-5-5.62-1.2-2.38-1.8-5.06-1.8-8.05s.6-5.69,1.8-8.09Z"/>
  <polygon class="cls-1" points="754.85 635.02 754.85 626.42 710.37 626.42 710.37 674.2 754.85 674.2 754.85 665.6 719.48 665.6 719.48 654.57 745.8 654.57 745.8 645.97 719.48 645.97 719.48 635.02 754.85 635.02"/>
  <path class="cls-1" d="M803.92,636.56c2.13-1.37,4.55-2.06,7.24-2.06,2.35,0,4.52.54,6.51,1.62,1.98,1.08,3.64,2.6,4.96,4.56l10.51-.15c-1.76-4.61-4.6-8.27-8.49-10.99-3.9-2.72-8.39-4.08-13.49-4.08-4.46,0-8.49,1.08-12.09,3.23-3.6,2.16-6.42,5.12-8.45,8.9-2.03,3.77-3.05,8.01-3.05,12.72s1.02,8.94,3.05,12.72c2.03,3.77,4.85,6.74,8.45,8.9,3.6,2.16,7.63,3.24,12.09,3.24,4.02,0,7.69-.86,11.03-2.57,3.33-1.71,6.06-4.14,8.2-7.28,2.13-3.14,3.49-6.71,4.08-10.73.2-1.18.29-2.6.29-4.26,0-1.42-.1-2.7-.29-3.82h-23.31v8.6h13.53c-.88,3.28-2.54,5.93-4.96,7.94-2.43,2.01-5.28,3.01-8.56,3.01-2.7,0-5.11-.69-7.24-2.06-2.13-1.37-3.8-3.25-5-5.62-1.2-2.38-1.8-5.06-1.8-8.05s.6-5.69,1.8-8.09c1.2-2.4,2.87-4.29,5-5.66Z"/>
  <path class="cls-1" d="M854.68,673.43c1.08-1.15,1.62-2.66,1.62-4.52s-.54-3.36-1.62-4.48c-1.08-1.13-2.5-1.69-4.26-1.69s-3.25.56-4.3,1.69c-1.05,1.13-1.58,2.62-1.58,4.48s.53,3.37,1.58,4.52c1.05,1.15,2.49,1.73,4.3,1.73s3.19-.58,4.26-1.73Z"/>
  <polygon class="cls-1" points="912.61 635.02 912.61 626.42 869.01 626.42 869.01 674.2 878.13 674.2 878.13 654.57 903.49 654.57 903.49 645.97 878.13 645.97 878.13 635.02 912.61 635.02"/>
  <path class="cls-1" d="M923.71,673.43c1.08-1.15,1.62-2.66,1.62-4.52s-.54-3.36-1.62-4.48c-1.08-1.13-2.5-1.69-4.26-1.69s-3.25.56-4.3,1.69c-1.05,1.13-1.58,2.62-1.58,4.48s.53,3.37,1.58,4.52c1.05,1.15,2.49,1.73,4.3,1.73s3.19-.58,4.26-1.73Z"/>
  <path class="cls-1" d="M966.97,664.76c-2.18,1.2-5.33,1.8-9.45,1.8-3.82,0-6.9-.61-9.23-1.84-2.33-1.22-3.49-2.84-3.49-4.85h-9.04c0,3.04.91,5.71,2.72,8.01,1.81,2.3,4.36,4.09,7.65,5.37,3.28,1.27,7.08,1.91,11.4,1.91,7.11,0,12.52-1.33,16.25-4.01,3.72-2.67,5.59-6.53,5.59-11.58s-1.69-8.47-5.07-10.7-8.8-3.35-16.25-3.35c-4.36,0-7.5-.39-9.41-1.18-1.91-.78-2.87-2.08-2.87-3.9,0-2.11,1-3.7,3.01-4.78,2.01-1.08,4.93-1.62,8.75-1.62,3.53,0,6.38.61,8.56,1.84,2.18,1.23,3.27,2.84,3.27,4.85h9.04c0-3.04-.87-5.71-2.61-8.01-1.74-2.3-4.19-4.09-7.35-5.37-3.16-1.27-6.8-1.91-10.92-1.91-6.81,0-12,1.27-15.55,3.82-3.55,2.55-5.33,6.27-5.33,11.17s1.62,8.28,4.85,10.44c3.23,2.16,8.45,3.23,15.66,3.23,4.56,0,7.88.43,9.96,1.29,2.08.86,3.12,2.24,3.12,4.15,0,2.25-1.09,3.98-3.27,5.18Z"/>
  <path class="cls-1" d="M999.95,673.43c1.08-1.15,1.62-2.66,1.62-4.52s-.54-3.36-1.62-4.48c-1.08-1.13-2.5-1.69-4.26-1.69s-3.25.56-4.3,1.69c-1.05,1.13-1.58,2.62-1.58,4.48s.53,3.37,1.58,4.52c1.05,1.15,2.49,1.73,4.3,1.73s3.19-.58,4.26-1.73Z"/>
  <path class="cls-1" d="M1046.56,662l4.71,12.2h9.78l-18.6-47.79h-13.6l-18.67,47.79h9.63l4.63-12.2h22.13ZM1035.38,633.55l8.09,19.85h-15.95l7.87-19.85Z"/>
  <path class="cls-1" d="M1079.86,673.43c1.08-1.15,1.62-2.66,1.62-4.52s-.54-3.36-1.62-4.48c-1.08-1.13-2.5-1.69-4.26-1.69s-3.25.56-4.3,1.69c-1.05,1.13-1.58,2.62-1.58,4.48s.53,3.37,1.58,4.52c1.05,1.15,2.49,1.73,4.3,1.73s3.19-.58,4.26-1.73Z"/>
  <path class="cls-1" d="M1160.18,662.55c2.03-3.65,3.05-7.73,3.05-12.24s-1.02-8.65-3.05-12.28c-2.03-3.63-4.85-6.47-8.45-8.53s-7.63-3.09-12.09-3.09h-22.72v47.79h22.72c4.46,0,8.49-1.03,12.09-3.09s6.42-4.91,8.45-8.56ZM1146.87,663.65c-2.13,1.3-4.55,1.95-7.24,1.95h-13.6v-30.58h13.6c2.7,0,5.11.66,7.24,1.99s3.8,3.15,5,5.48c1.2,2.33,1.8,4.94,1.8,7.83s-.6,5.58-1.8,7.9c-1.2,2.33-2.87,4.14-5,5.44Z"/>
  <polygon class="cls-1" points="1219.1 635.02 1219.1 626.42 1174.62 626.42 1174.62 674.2 1219.1 674.2 1219.1 665.6 1183.74 665.6 1183.74 654.57 1210.06 654.57 1210.06 645.97 1183.74 645.97 1183.74 635.02 1219.1 635.02"/>
  <path class="cls-1" d="M1268.17,636.56c2.13-1.37,4.55-2.06,7.24-2.06,3.38,0,6.3,1.05,8.75,3.16,2.45,2.11,4.07,4.88,4.85,8.31h9.7c-.59-4.02-1.95-7.58-4.08-10.7s-4.87-5.53-8.2-7.24c-3.33-1.71-7.01-2.57-11.03-2.57-4.46,0-8.49,1.08-12.09,3.23-3.6,2.16-6.42,5.12-8.45,8.9-2.04,3.77-3.05,8.01-3.05,12.72s1.02,8.94,3.05,12.72c2.03,3.77,4.85,6.74,8.45,8.9,3.6,2.16,7.63,3.24,12.09,3.24,4.02,0,7.69-.86,11.03-2.57,3.33-1.71,6.07-4.14,8.2-7.28,2.13-3.14,3.49-6.71,4.08-10.73h-9.7c-.79,3.43-2.4,6.2-4.85,8.31-2.45,2.11-5.37,3.16-8.75,3.16-2.7,0-5.11-.69-7.24-2.06-2.13-1.37-3.8-3.25-5-5.62-1.2-2.38-1.8-5.06-1.8-8.05s.6-5.69,1.8-8.09,2.87-4.29,5-5.66Z"/>
  <path class="cls-1" d="M1318.64,673.43c1.08-1.15,1.62-2.66,1.62-4.52s-.54-3.36-1.62-4.48c-1.08-1.13-2.5-1.69-4.26-1.69s-3.25.56-4.3,1.69c-1.05,1.13-1.58,2.62-1.58,4.48s.53,3.37,1.58,4.52c1.05,1.15,2.49,1.73,4.3,1.73s3.19-.58,4.26-1.73Z"/>
  <polygon class="cls-1" points="1379.73 626.42 1370.1 626.42 1354.81 665.6 1353.93 665.6 1338.63 626.42 1328.86 626.42 1347.53 674.2 1361.13 674.2 1379.73 626.42"/>
  <rect class="cls-1" x="224.77" y="372.25" width="531.78" height="15.55"/>
  <rect class="cls-1" x="224.77" y="439.22" width="531.78" height="15.55"/>
  <rect class="cls-1" x="224.77" y="506.19" width="531.78" height="15.55"/>
  <rect class="cls-1" x="1150.81" y="372.25" width="544.42" height="15.55"/>
  <rect class="cls-1" x="1150.81" y="439.22" width="544.42" height="15.55"/>
  <rect class="cls-1" x="1150.81" y="506.19" width="544.42" height="15.55"/>
  <polygon class="cls-1" points="1201.25 573.17 718.68 573.17 714.61 573.17 224.77 573.17 224.77 588.71 714.61 588.71 718.68 588.71 1201.25 588.71 1208.51 588.71 1695.16 588.71 1695.16 573.17 1208.51 573.17 1201.25 573.17"/>
  <polygon class="cls-1" points="1201.25 707.11 718.68 707.11 713.78 707.11 224.77 707.11 224.77 722.65 713.78 722.65 718.68 722.65 1201.25 722.65 1207.69 722.65 1695.16 722.65 1695.16 707.11 1207.69 707.11 1201.25 707.11"/>
  <g>
    <path class="cls-1" d="M879.6,421.75l-.07-2.06c-.56-17.28-4.86-30.38-12.77-38.94-7.98-8.62-19.59-12.99-34.52-12.99-6.96,0-13.48.92-19.36,2.74-5.98,1.85-11.19,4.86-15.48,8.93-4.29,4.07-7.68,9.44-10.09,15.96-2.38,6.45-3.59,14.44-3.59,23.75v52.64c0,9.32,1.21,17.31,3.59,23.75,2.41,6.52,5.8,11.88,10.09,15.96,4.29,4.08,9.5,7.08,15.48,8.93,5.88,1.82,12.4,2.74,19.36,2.74,5.65,0,10.81-1.4,15.33-4.17,3.53-2.16,6.95-4.95,10.21-8.3l3.65,10.44h18.11v-79.49h-51.95v27.26h19.79v6.98c0,5.88-1.38,10.49-4.12,13.7-2.69,3.16-6.29,4.7-11.02,4.7-5.19,0-9.28-1.27-12.15-3.79-2.8-2.45-4.21-7.5-4.21-15.02v-59.99c0-7.52,1.42-12.57,4.21-15.02h0c2.87-2.52,6.96-3.79,12.15-3.79,4.6,0,8.18,1.54,10.94,4.72,2.79,3.22,4.2,9.4,4.2,18.38v2h32.22Z"/>
    <path class="cls-1" d="M1007.9,491.57c-2.68-1.18-5.25-2.54-7.67-4.08,3.41-5.63,6.44-11.31,9-16.93,2.79-6.14,5.38-12.36,7.7-18.48l.77-2.05-26.66-7.45-.55,1.9c-1.46,5.04-3.34,9.86-5.58,14.35-1.93,3.85-4.02,7.8-6.24,11.75-8.36-8.08-16.12-16.95-23.1-26.41,2.94-2.36,5.87-4.74,8.73-7.08,3.49-2.86,6.64-6.01,9.37-9.37,2.75-3.38,5.03-7.1,6.8-11.06,1.81-4.05,2.72-8.65,2.72-13.67s-.95-9.54-2.82-13.85c-1.87-4.3-4.45-8.08-7.68-11.25-3.23-3.16-7.12-5.67-11.57-7.46-4.44-1.79-9.36-2.7-14.62-2.7s-10.25.75-14.98,2.23c-4.8,1.5-9.1,3.91-12.76,7.14-3.67,3.24-6.62,7.35-8.77,12.22-2.14,4.86-3.23,10.62-3.23,17.13s1.08,12.24,3.21,17.48c1.89,4.66,4.6,9.71,8.07,15.03-3.08,2.13-5.98,4.33-8.63,6.57-3.2,2.7-5.96,5.79-8.23,9.19-2.27,3.41-4.07,7.26-5.35,11.44-1.28,4.18-1.92,8.95-1.92,14.15,0,7.07,1.23,13.32,3.65,18.59,2.43,5.29,5.91,9.82,10.34,13.46,4.41,3.63,9.77,6.36,15.92,8.13,6.07,1.74,12.81,2.63,20.04,2.63,7.58,0,14.71-1.39,21.19-4.14,5.89-2.5,11.2-5.94,15.82-10.25,2.95,2.51,5.79,4.63,8.44,6.32,3.08,1.97,6.18,3.57,9.22,4.76,3.04,1.2,6.17,2.06,9.3,2.56,3.09.49,6.49.74,10.11.74h2v-28.69l-1.79-.19c-3.59-.38-7.03-1.29-10.22-2.7ZM936.99,392.67c1.86-2.54,4.44-3.77,7.88-3.77,1.85,0,3.47.34,4.82,1.01,1.36.68,2.51,1.6,3.41,2.72.94,1.18,1.65,2.46,2.12,3.79.47,1.35.71,2.75.71,4.14,0,2.69-.49,5.12-1.45,7.23-1.01,2.2-2.31,4.24-3.88,6.06-1.63,1.89-3.48,3.7-5.48,5.38-1.45,1.22-2.88,2.46-4.26,3.7-1.85-3.22-3.42-6.27-4.66-9.09-1.44-3.26-2.18-6.97-2.18-11.02s1-7.45,2.98-10.14ZM955.04,493.73h0c-3.12,1.44-6.48,2.16-9.98,2.16-2.49,0-4.91-.41-7.19-1.21-2.26-.79-4.29-2-6.06-3.58-1.75-1.56-3.16-3.56-4.19-5.94-1.04-2.38-1.57-5.24-1.57-8.48,0-3.9.87-7.08,2.58-9.44,1.52-2.1,3.44-4.14,5.72-6.09,3.99,5.04,8.19,9.99,12.5,14.73,4.33,4.77,9.12,9.46,14.27,13.97-1.65,1.48-3.68,2.79-6.07,3.89Z"/>
    <path class="cls-1" d="M1077.11,468.88h19.79v6.98c0,5.88-1.38,10.49-4.12,13.7-2.69,3.16-6.29,4.7-11.02,4.7-5.19,0-9.28-1.27-12.15-3.79-2.8-2.45-4.21-7.5-4.21-15.02v-59.99c0-7.52,1.42-12.57,4.21-15.02,2.87-2.52,6.96-3.79,12.15-3.79,4.6,0,8.18,1.54,10.94,4.72,2.79,3.22,4.2,9.4,4.2,18.38v2h32.22l-.07-2.06c-.56-17.28-4.86-30.38-12.77-38.94-7.98-8.62-19.59-12.99-34.52-12.99-6.96,0-13.48.92-19.36,2.74-5.98,1.85-11.19,4.86-15.48,8.93-4.29,4.07-7.68,9.44-10.09,15.96-2.38,6.44-3.59,14.44-3.59,23.75v52.64c0,9.32,1.21,17.31,3.59,23.75,2.41,6.52,5.8,11.88,10.09,15.96,4.29,4.08,9.5,7.08,15.48,8.93,5.88,1.82,12.4,2.74,19.36,2.74,5.65,0,10.81-1.4,15.33-4.17,3.53-2.16,6.95-4.95,10.21-8.3l3.65,10.44h18.11v-79.49h-51.95v27.26Z"/>
  </g>
</svg>