<svg xmlns="http://www.w3.org/2000/svg" width="85.124" height="131.634" viewBox="0 0 85.124 131.634"><g transform="translate(0 0)"><path d="M403.123,828.586,378.98,801.342c4.611-7.537,10.5-14.342,14.114-22.474,3.871-8.688,2.9-16.842.244-25.728-5.2-17.429-16.354-33.5-36.923-30.521-19.166,2.782-31.009,29.355-29.934,46.715.7,11.393,10.448,22.039,16.286,31.268l-24.31,29.081,15.988,24.051.617.16,26.109-29.957,25.583,29.8,1.1-.183L403.58,829.8Zm-14.129-80.247c2.385,6.2,4.931,16.034,4.047,22.611-.838,6.234-7.034,15.2-10.509,20.584-.945,1.471-2.865,3.7-3.536,5.075-.229.48.023,1.227-.739,1.6l-1.8.252-14.609-17.977c8.993-12.452,18.557-25.194,21.978-40.512,2.705,1.905,4.009,5.365,5.167,8.368m-28.311,29.21c-.206.221-.358.526-.724.465-3.186-4.588-6.622-8.993-9.587-13.733-.694-1.105-4.176-6.729-4.13-7.56.069-1.166,3.2-2.675,4.214-3.117a26.974,26.974,0,0,1,21.7.236,20.23,20.23,0,0,1,2.622,1.585c.145.168.259.259.152.5-3.064,5.235-6.135,10.486-9.625,15.447a64.734,64.734,0,0,1-4.618,6.173m-18.275-44.795c3.78-4.694,10.905-7.331,16.781-7.727,6.9-.465,20.294,3.033,21.9,10.913,1.128,5.517-2.195,12.338-4.946,17a33.679,33.679,0,0,0-6.638-2.858,29.993,29.993,0,0,0-15.805-.366c-3.323.838-6.089,2.865-9.351,3.772-.419-.122-2.294-5.251-2.545-6.066-1.433-4.542-2.637-10.654.6-14.67m-7.773,117.322-13.054-20.546L344.5,803.079,359.2,821.788Zm53.109-.19a4.137,4.137,0,0,1-2.271-1.273c-3.1-3.178-6.28-7.743-9.244-11.241-14.411-17.025-29.873-33.966-41.4-53.155-5.548-9.236-7.095-15.066-4.74-25.926a74.662,74.662,0,0,1,6.92-18.32c1.334,4.534,2.362,8.909,4.321,13.237,4.641,10.2,11.591,19.921,18.374,28.814,12.681,16.613,26.886,31.977,40.847,47.5Z" transform="translate(-318.456 -722.261)" fill="#30c6df"/></g></svg>