<svg xmlns="http://www.w3.org/2000/svg" xmlns:xlink="http://www.w3.org/1999/xlink" width="74.906" height="71.37" viewBox="0 0 74.906 71.37"><defs><clipPath id="a"><rect width="74.906" height="71.37" fill="#26d0d0"/></clipPath></defs><g transform="translate(0)" clip-path="url(#a)"><path d="M175.206,82.9q0-10.431,0-20.862c0-4.094-2.415-6.509-6.516-6.509-5.2,0-10.209.326-10.213-1.839,0-.693,0-1.386.007-2.079,0-.327.1-.579.5-.6,2.456-.113,11.748-.8,15.465,1.325a10.022,10.022,0,0,1,5.365,9.079c.082,13.858.039,27.717.012,41.575,0,2.384-.2,4.758-1.609,6.83a9.922,9.922,0,0,1-8.486,4.788q-18.338.061-36.676.027a10.292,10.292,0,0,1-9.575-6.545c-.072-.184-.14-.371-.194-.561-.094-.332.043-.567.349-.326.762.6,1.325.125,1.938-.241.573-.341,1.168-.925,1.742-.911.625.015.627.983.993,1.485a6.079,6.079,0,0,0,5.176,2.563c6.187.02,12.374,0,18.561.006,5.692,0,11.384.018,17.076.006a6.048,6.048,0,0,0,5.989-4.8,6.382,6.382,0,0,0,.1-1.327q.009-10.542,0-21.085Z" transform="translate(-104.951 -43.276)" fill="#26d0d0"/><path d="M19.575,131.16a11.919,11.919,0,0,1,4.367,1.086c4.333,1.619,8.674,3.217,13.049,4.72a2.884,2.884,0,0,1,1.954,3.211,46.95,46.95,0,0,1-1.837,9.526A39.78,39.78,0,0,1,26.95,166.565a39.379,39.379,0,0,1-6.854,5.424,1.052,1.052,0,0,1-1.282-.022,39.714,39.714,0,0,1-13.527-14.2A43.587,43.587,0,0,1,.027,140.35a2.987,2.987,0,0,1,2.327-3.537c4.716-1.578,9.359-3.358,14.029-5.066a9.73,9.73,0,0,1,3.192-.587M3.185,140.5c.01.177.007.277.022.374.189,1.221.337,2.45.578,3.661a36.96,36.96,0,0,0,15.109,23.739.867.867,0,0,0,1.186.006,38.9,38.9,0,0,0,7.63-7.217,39.2,39.2,0,0,0,8.063-20.344.928.928,0,0,0-.732-1.144c-4.333-1.541-8.664-3.092-12.97-4.706a6.879,6.879,0,0,0-5.05-.056c-4.377,1.635-8.777,3.212-13.174,4.794-.5.179-.771.421-.662.894" transform="translate(0 -111.684)" fill="#26d0d0"/><path d="M233.621,13.322q-5.825,0-11.65,0c-1.512,0-1.926-.414-1.938-1.937-.009-1.138-.018-2.276,0-3.413a1.4,1.4,0,0,1,1.458-1.6c.711-.076,1.431-.072,2.147-.1A5.51,5.51,0,0,0,228.255,3.6c.35-.538.643-1.113.953-1.676A3.463,3.463,0,0,1,232.482.009c.767.005,1.535.024,2.3,0A3.563,3.563,0,0,1,238.1,1.862c.383.606.749,1.223,1.139,1.824a5.772,5.772,0,0,0,5,2.705c.568.015,1.139-.014,1.706.013.829.039,1.272.412,1.3,1.224.047,1.483.052,2.968.006,4.451-.026.859-.57,1.24-1.6,1.242q-5.306.007-10.611,0h-1.41" transform="translate(-187.352 0)" fill="#26d0d0"/><path d="M137.125,56.367c-8.189,0-8.7.451-9.946,1.968a5.762,5.762,0,0,0-1.061,1.856c-.128.391-.314.575-.753.478a11.028,11.028,0,0,0-3.535-.255c-.547.056-.473-.268-.39-.61a10.168,10.168,0,0,1,3.12-5.283c2.564-2.313,5.639-2.683,8.975-2.683,1.687,0,5.258-.185,5.258.135,0,.593-1,4.339-1.668,4.394" transform="translate(-103.359 -44.095)" fill="#26d0d0"/><path d="M244.155,373.591c-1.009,0-1.01,0-1.013-1.044q0-.705,0-1.41c0-1.038,0-1.042,1.016-1.043,3.983,0,26.071,0,26.689,0,1,0,1,.005,1.008.973,0,.495,0,.99,0,1.484,0,1.036,0,1.04-1.012,1.041-2.3,0-24.389,0-26.689,0" transform="translate(-207.038 -315.137)" fill="#26d0d0"/><path d="M248.67,306.927c-1.629,0-3.258.006-4.887,0-.736,0-.772-.072-.442-.692.383-.719.787-1.427,1.133-2.163a1.12,1.12,0,0,1,1.143-.736q3.962.029,7.923,0c.611,0,.84.23.807.833a19.134,19.134,0,0,0,0,2c.03.594-.234.774-.791.768-1.629-.02-3.258-.007-4.887-.007" transform="translate(-207.038 -258.292)" fill="#26d0d0"/><path d="M277.381,236.088c1.284,0,2.569.016,3.853-.008.541-.01.767.2.754.738-.018.74-.01,1.481,0,2.222,0,.4-.162.562-.582.56q-4.473-.02-8.947,0c-.4,0-.546-.106-.434-.518.214-.786.42-1.574.6-2.368a.718.718,0,0,1,.832-.634c1.309.022,2.618.007,3.927.007Z" transform="translate(-231.599 -201.023)" fill="#26d0d0"/><path d="M285.793,169.691c.5-.028.661.159.647.634-.022.74-.019,1.481,0,2.221.01.466-.177.676-.652.672q-1.925-.017-3.851,0c-.484,0-.659-.218-.641-.678a5.487,5.487,0,0,0-.376-2.175c-.251-.658.076-.71.583-.7.715.016,3.579.064,4.293.024" transform="translate(-239.131 -144.472)" fill="#26d0d0"/><path d="M82.7,214.107c0-.742.009-1.484,0-2.226-.007-.414.126-.665.584-.663q1.67.006,3.339,0c.53,0,.581.35.581.752,0,1.385.022,2.771-.011,4.156-.016.666.2.924.9.9,1.384-.044,2.77,0,4.155-.018.566-.007.8.21.787.79-.03.964-.037,1.93,0,2.894.023.634-.257.815-.842.806-1.385-.023-2.771.014-4.156-.015-.6-.013-.839.195-.824.814.032,1.409-.005,2.82.016,4.23.009.567-.2.806-.779.788-.964-.03-1.93-.031-2.894,0-.6.02-.847-.2-.835-.814.028-1.311.009-2.622.007-3.933,0-1.042,0-1.043-1.079-1.044-1.286,0-2.573-.024-3.859.008-.621.016-.91-.159-.879-.834.044-.963.035-1.93,0-2.894-.019-.587.224-.79.786-.783,1.41.017,2.82-.014,4.23.011.571.01.812-.185.784-.771-.033-.716-.008-1.434-.008-2.152" transform="translate(-65.481 -179.852)" fill="#26d0d0"/><path d="M306.683,307.111c-1.009,0-1.01,0-1.013-1.044q0-.705,0-1.41c0-1.038,0-1.042,1.016-1.043,3.983,0,16.7,0,17.314,0,1,0,1,.005,1.008.973,0,.495,0,.99,0,1.484,0,1.036,0,1.04-1.012,1.041-2.3,0-15.013,0-17.314,0" transform="translate(-260.281 -258.528)" fill="#26d0d0"/><path d="M306.683,239.934c-1.009,0-1.01,0-1.013-1.044q0-.705,0-1.41c0-1.038,0-1.042,1.016-1.043,3.983,0,16.7,0,17.314,0,1,0,1,.005,1.008.973,0,.495,0,.99,0,1.484,0,1.036,0,1.04-1.012,1.041-2.3,0-15.013,0-17.314,0" transform="translate(-260.281 -201.326)" fill="#26d0d0"/><path d="M306.683,173.339c-1.009,0-1.01,0-1.013-1.044q0-.705,0-1.41c0-1.038,0-1.042,1.016-1.043,3.983,0,16.7,0,17.314,0,1,0,1,.006,1.008.973,0,.495,0,.99,0,1.484,0,1.036,0,1.04-1.012,1.041-2.3,0-15.013,0-17.314,0" transform="translate(-260.281 -144.62)" fill="#26d0d0"/></g></svg>