<svg xmlns="http://www.w3.org/2000/svg" xmlns:xlink="http://www.w3.org/1999/xlink" width="91.548" height="56.382" viewBox="0 0 91.548 56.382"><defs><clipPath id="a"><rect width="91.549" height="56.382" fill="#26d0d0"/></clipPath></defs><g transform="translate(0 0)" clip-path="url(#a)"><path d="M48.383,18.028a10.261,10.261,0,0,0-12.771,7.458A10.47,10.47,0,0,0,42.956,38.4a10.63,10.63,0,0,0,12.989-7.3,10.48,10.48,0,0,0-7.562-13.071M44.017,34.869a6.869,6.869,0,0,1-4.844-8.41A6.645,6.645,0,0,1,47.5,21.6a6.907,6.907,0,0,1,4.95,8.358,7.043,7.043,0,0,1-8.431,4.913m4.367-16.842a10.261,10.261,0,0,0-12.771,7.458A10.47,10.47,0,0,0,42.956,38.4a10.63,10.63,0,0,0,12.989-7.3,10.48,10.48,0,0,0-7.562-13.071M44.017,34.869a6.869,6.869,0,0,1-4.844-8.41A6.645,6.645,0,0,1,47.5,21.6a6.907,6.907,0,0,1,4.95,8.358,7.043,7.043,0,0,1-8.431,4.913m4.367-16.842a10.261,10.261,0,0,0-12.771,7.458A10.47,10.47,0,0,0,42.956,38.4a10.63,10.63,0,0,0,12.989-7.3,10.48,10.48,0,0,0-7.562-13.071M44.017,34.869a6.869,6.869,0,0,1-4.844-8.41A6.645,6.645,0,0,1,47.5,21.6a6.907,6.907,0,0,1,4.95,8.358,7.043,7.043,0,0,1-8.431,4.913m4.367-16.842a10.261,10.261,0,0,0-12.771,7.458A10.47,10.47,0,0,0,42.956,38.4a10.63,10.63,0,0,0,12.989-7.3,10.48,10.48,0,0,0-7.562-13.071M44.017,34.869a6.869,6.869,0,0,1-4.844-8.41A6.645,6.645,0,0,1,47.5,21.6a6.907,6.907,0,0,1,4.95,8.358,7.043,7.043,0,0,1-8.431,4.913m4.367-16.842a10.261,10.261,0,0,0-12.771,7.458A10.47,10.47,0,0,0,42.956,38.4a10.63,10.63,0,0,0,12.989-7.3,10.48,10.48,0,0,0-7.562-13.071M44.017,34.869a6.869,6.869,0,0,1-4.844-8.41A6.645,6.645,0,0,1,47.5,21.6a6.907,6.907,0,0,1,4.95,8.358,7.043,7.043,0,0,1-8.431,4.913m4.367-16.842a10.261,10.261,0,0,0-12.771,7.458A10.47,10.47,0,0,0,42.956,38.4a10.63,10.63,0,0,0,12.989-7.3,10.48,10.48,0,0,0-7.562-13.071M44.017,34.869a6.869,6.869,0,0,1-4.844-8.41A6.645,6.645,0,0,1,47.5,21.6a6.907,6.907,0,0,1,4.95,8.358,7.043,7.043,0,0,1-8.431,4.913m38.727,1.125c-.087-5.041-.05-10.091,0-15.13.021-1.954-.6-3.136-2.743-3.459-3.336-.5-5.507-2.479-5.894-5.878-.289-2.5-1.833-2.772-3.779-2.769-16.444.026-32.888.075-49.333.025-2.184,0-3.326.61-3.648,2.907a6.191,6.191,0,0,1-5.659,5.678c-2.384.307-2.952,1.565-2.915,3.656.092,4.914.113,9.838.142,14.765.006,1.751.448,2.972,2.535,3.212,3.533.41,5.608,2.493,6.165,6.03.192,1.255.515,2.391,1.534,2.478.764.089,1,.142,1.244.142q25.393.021,50.785.019c1.568,0,2.775-.413,2.967-2.356.353-3.73,2.546-5.825,6.206-6.393,1.729-.269,2.423-1.13,2.392-2.926m-5.637-.061a8.826,8.826,0,0,0-5.423,4.978c-.952,2.613-2.472,3.128-5.106,3.094-13.91-.171-27.823-.147-41.745-.066-2.257.013-3.773-.2-4.59-2.744a8.3,8.3,0,0,0-5.3-5.1A3.11,3.11,0,0,1,12.6,32.319,22.61,22.61,0,0,0,12.551,28c-.329-3.923-.5-7.613,4.48-9.038A4.542,4.542,0,0,0,19.593,16.1c.929-3.828,3.6-3.648,6.625-3.631,13.557.093,27.113.059,40.665-.014,2.21-.011,3.762.212,4.556,2.757A7.362,7.362,0,0,0,76.4,20.107c2.437.7,2.694,2.176,2.611,4.293-.131,3.237,0,6.48.019,9.722-.016,1.272-1.036,1.455-1.926,1.811M48.383,18.028a10.261,10.261,0,0,0-12.771,7.458A10.47,10.47,0,0,0,42.956,38.4a10.63,10.63,0,0,0,12.989-7.3,10.48,10.48,0,0,0-7.562-13.071M44.017,34.869a6.869,6.869,0,0,1-4.844-8.41A6.645,6.645,0,0,1,47.5,21.6a6.907,6.907,0,0,1,4.95,8.358,7.043,7.043,0,0,1-8.431,4.913m4.367-16.842a10.261,10.261,0,0,0-12.771,7.458A10.47,10.47,0,0,0,42.956,38.4a10.63,10.63,0,0,0,12.989-7.3,10.48,10.48,0,0,0-7.562-13.071M44.017,34.869a6.869,6.869,0,0,1-4.844-8.41A6.645,6.645,0,0,1,47.5,21.6a6.907,6.907,0,0,1,4.95,8.358,7.043,7.043,0,0,1-8.431,4.913m4.367-16.842a10.261,10.261,0,0,0-12.771,7.458A10.47,10.47,0,0,0,42.956,38.4a10.63,10.63,0,0,0,12.989-7.3,10.48,10.48,0,0,0-7.562-13.071M44.017,34.869a6.869,6.869,0,0,1-4.844-8.41A6.645,6.645,0,0,1,47.5,21.6a6.907,6.907,0,0,1,4.95,8.358,7.043,7.043,0,0,1-8.431,4.913m4.367-16.842a10.261,10.261,0,0,0-12.771,7.458A10.47,10.47,0,0,0,42.956,38.4a10.63,10.63,0,0,0,12.989-7.3,10.48,10.48,0,0,0-7.562-13.071M44.017,34.869a6.869,6.869,0,0,1-4.844-8.41A6.645,6.645,0,0,1,47.5,21.6a6.907,6.907,0,0,1,4.95,8.358,7.043,7.043,0,0,1-8.431,4.913m4.367-16.842a10.261,10.261,0,0,0-12.771,7.458A10.47,10.47,0,0,0,42.956,38.4a10.63,10.63,0,0,0,12.989-7.3,10.48,10.48,0,0,0-7.562-13.071M44.017,34.869a6.869,6.869,0,0,1-4.844-8.41A6.645,6.645,0,0,1,47.5,21.6a6.907,6.907,0,0,1,4.95,8.358,7.043,7.043,0,0,1-8.431,4.913m38.727,1.125c-.087-5.041-.05-10.091,0-15.13.021-1.954-.6-3.136-2.743-3.459-3.336-.5-5.507-2.479-5.894-5.878-.289-2.5-1.833-2.772-3.779-2.769-16.444.026-32.888.075-49.333.025-2.184,0-3.326.61-3.648,2.907a6.191,6.191,0,0,1-5.659,5.678c-2.384.307-2.952,1.565-2.915,3.656.092,4.914.113,9.838.142,14.765.006,1.751.448,2.972,2.535,3.212,3.533.41,5.608,2.493,6.165,6.03.192,1.255.515,2.391,1.534,2.478.764.089,1,.142,1.244.142q25.393.021,50.785.019c1.568,0,2.775-.413,2.967-2.356.353-3.73,2.546-5.825,6.206-6.393,1.729-.269,2.423-1.13,2.392-2.926m-5.637-.061a8.826,8.826,0,0,0-5.423,4.978c-.952,2.613-2.472,3.128-5.106,3.094-13.91-.171-27.823-.147-41.745-.066-2.257.013-3.773-.2-4.59-2.744a8.3,8.3,0,0,0-5.3-5.1A3.11,3.11,0,0,1,12.6,32.319,22.61,22.61,0,0,0,12.551,28c-.329-3.923-.5-7.613,4.48-9.038A4.542,4.542,0,0,0,19.593,16.1c.929-3.828,3.6-3.648,6.625-3.631,13.557.093,27.113.059,40.665-.014,2.21-.011,3.762.212,4.556,2.757A7.362,7.362,0,0,0,76.4,20.107c2.437.7,2.694,2.176,2.611,4.293-.131,3.237,0,6.48.019,9.722-.016,1.272-1.036,1.455-1.926,1.811M48.383,18.028a10.261,10.261,0,0,0-12.771,7.458A10.47,10.47,0,0,0,42.956,38.4a10.63,10.63,0,0,0,12.989-7.3,10.48,10.48,0,0,0-7.562-13.071M44.017,34.869a6.869,6.869,0,0,1-4.844-8.41A6.645,6.645,0,0,1,47.5,21.6a6.907,6.907,0,0,1,4.95,8.358,7.043,7.043,0,0,1-8.431,4.913m4.367-16.842a10.261,10.261,0,0,0-12.771,7.458A10.47,10.47,0,0,0,42.956,38.4a10.63,10.63,0,0,0,12.989-7.3,10.48,10.48,0,0,0-7.562-13.071M44.017,34.869a6.869,6.869,0,0,1-4.844-8.41A6.645,6.645,0,0,1,47.5,21.6a6.907,6.907,0,0,1,4.95,8.358,7.043,7.043,0,0,1-8.431,4.913m4.367-16.842a10.261,10.261,0,0,0-12.771,7.458A10.47,10.47,0,0,0,42.956,38.4a10.63,10.63,0,0,0,12.989-7.3,10.48,10.48,0,0,0-7.562-13.071M44.017,34.869a6.869,6.869,0,0,1-4.844-8.41A6.645,6.645,0,0,1,47.5,21.6a6.907,6.907,0,0,1,4.95,8.358,7.043,7.043,0,0,1-8.431,4.913m4.367-16.842a10.261,10.261,0,0,0-12.771,7.458A10.47,10.47,0,0,0,42.956,38.4a10.63,10.63,0,0,0,12.989-7.3,10.48,10.48,0,0,0-7.562-13.071M44.017,34.869a6.869,6.869,0,0,1-4.844-8.41A6.645,6.645,0,0,1,47.5,21.6a6.907,6.907,0,0,1,4.95,8.358,7.043,7.043,0,0,1-8.431,4.913m4.367-16.842a10.261,10.261,0,0,0-12.771,7.458A10.47,10.47,0,0,0,42.956,38.4a10.63,10.63,0,0,0,12.989-7.3,10.48,10.48,0,0,0-7.562-13.071M44.017,34.869a6.869,6.869,0,0,1-4.844-8.41A6.645,6.645,0,0,1,47.5,21.6a6.907,6.907,0,0,1,4.95,8.358,7.043,7.043,0,0,1-8.431,4.913m38.727,1.125c-.087-5.041-.05-10.091,0-15.13.021-1.954-.6-3.136-2.743-3.459-3.336-.5-5.507-2.479-5.894-5.878-.289-2.5-1.833-2.772-3.779-2.769-16.444.026-32.888.075-49.333.025-2.184,0-3.326.61-3.648,2.907a6.191,6.191,0,0,1-5.659,5.678c-2.384.307-2.952,1.565-2.915,3.656.092,4.914.113,9.838.142,14.765.006,1.751.448,2.972,2.535,3.212,3.533.41,5.608,2.493,6.165,6.03.192,1.255.515,2.391,1.534,2.478.764.089,1,.142,1.244.142q25.393.021,50.785.019c1.568,0,2.775-.413,2.967-2.356.353-3.73,2.546-5.825,6.206-6.393,1.729-.269,2.423-1.13,2.392-2.926m-5.637-.061a8.826,8.826,0,0,0-5.423,4.978c-.952,2.613-2.472,3.128-5.106,3.094-13.91-.171-27.823-.147-41.745-.066-2.257.013-3.773-.2-4.59-2.744a8.3,8.3,0,0,0-5.3-5.1A3.11,3.11,0,0,1,12.6,32.319,22.61,22.61,0,0,0,12.551,28c-.329-3.923-.5-7.613,4.48-9.038A4.542,4.542,0,0,0,19.593,16.1c.929-3.828,3.6-3.648,6.625-3.631,13.557.093,27.113.059,40.665-.014,2.21-.011,3.762.212,4.556,2.757A7.362,7.362,0,0,0,76.4,20.107c2.437.7,2.694,2.176,2.611,4.293-.131,3.237,0,6.48.019,9.722-.016,1.272-1.036,1.455-1.926,1.811M48.383,18.028a10.261,10.261,0,0,0-12.771,7.458A10.47,10.47,0,0,0,42.956,38.4a10.63,10.63,0,0,0,12.989-7.3,10.48,10.48,0,0,0-7.562-13.071M44.017,34.869a6.869,6.869,0,0,1-4.844-8.41A6.645,6.645,0,0,1,47.5,21.6a6.907,6.907,0,0,1,4.95,8.358,7.043,7.043,0,0,1-8.431,4.913m38.727,1.125c-.087-5.041-.05-10.091,0-15.13.021-1.954-.6-3.136-2.743-3.459-3.336-.5-5.507-2.479-5.894-5.878-.289-2.5-1.833-2.772-3.779-2.769-16.444.026-32.888.075-49.333.025-2.184,0-3.326.61-3.648,2.907a6.191,6.191,0,0,1-5.659,5.678c-2.384.307-2.952,1.565-2.915,3.656.092,4.914.113,9.838.142,14.765.006,1.751.448,2.972,2.535,3.212,3.533.41,5.608,2.493,6.165,6.03.192,1.255.515,2.391,1.534,2.478.764.089,1,.142,1.244.142q25.393.021,50.785.019c1.568,0,2.775-.413,2.967-2.356.353-3.73,2.546-5.825,6.206-6.393,1.729-.269,2.423-1.13,2.392-2.926m-5.637-.061a8.826,8.826,0,0,0-5.423,4.978c-.952,2.613-2.472,3.128-5.106,3.094-13.91-.171-27.823-.147-41.745-.066-2.257.013-3.773-.2-4.59-2.744a8.3,8.3,0,0,0-5.3-5.1A3.11,3.11,0,0,1,12.6,32.319,22.61,22.61,0,0,0,12.551,28c-.329-3.923-.5-7.613,4.48-9.038A4.542,4.542,0,0,0,19.593,16.1c.929-3.828,3.6-3.648,6.625-3.631,13.557.093,27.113.059,40.665-.014,2.21-.011,3.762.212,4.556,2.757A7.362,7.362,0,0,0,76.4,20.107c2.437.7,2.694,2.176,2.611,4.293-.131,3.237,0,6.48.019,9.722-.016,1.272-1.036,1.455-1.926,1.811M48.383,18.028a10.261,10.261,0,0,0-12.771,7.458A10.47,10.47,0,0,0,42.956,38.4a10.63,10.63,0,0,0,12.989-7.3,10.48,10.48,0,0,0-7.562-13.071M44.017,34.869a6.869,6.869,0,0,1-4.844-8.41A6.645,6.645,0,0,1,47.5,21.6a6.907,6.907,0,0,1,4.95,8.358,7.043,7.043,0,0,1-8.431,4.913m47.46,15.572q.133-22.14.052-44.287c0-2.816-1.341-4.8-4.612-5.738-.5-.03-1.457-.159-2.41-.159Q45.79.114,7.088,0C2.007-.008.078,1.893.057,6.94q-.085,21.252-.039,42.5c.012,5.012,1.968,6.851,7.106,6.9,4.919.052,9.838.045,14.757.044q31.334.005,62.66-.02c4.671,0,6.906-1.847,6.935-5.916M84.3,52.723q-38.688-.088-77.385-.03c-2.3.008-3.241-.935-3.233-3.215Q3.743,28.241,3.735,7c-.006-.483.062-.959.1-1.37.51-2.513,2.482-1.946,4.051-1.944q19.794.021,39.6.118c12,.049,24,.226,36,.1,3.246-.033,4.494.809,4.448,4.2q-.262,20.525-.108,41.043c.014,2.729-.881,3.579-3.515,3.575m-1.56-31.859c.021-1.954-.6-3.136-2.743-3.459-3.336-.5-5.507-2.479-5.894-5.878-.289-2.5-1.833-2.772-3.779-2.769-16.444.026-32.888.075-49.333.025-2.184,0-3.326.61-3.648,2.907a6.191,6.191,0,0,1-5.659,5.678c-2.384.307-2.952,1.565-2.915,3.656.092,4.914.113,9.838.142,14.765.006,1.751.448,2.972,2.535,3.212,3.533.41,5.608,2.493,6.165,6.03.192,1.255.515,2.391,1.534,2.478.764.089,1,.142,1.244.142q25.393.021,50.785.019c1.568,0,2.775-.413,2.967-2.356.353-3.73,2.546-5.825,6.206-6.393,1.729-.269,2.423-1.13,2.392-2.926-.087-5.041-.05-10.091,0-15.13m-5.637,15.07a8.826,8.826,0,0,0-5.423,4.978c-.952,2.613-2.472,3.128-5.106,3.094-13.91-.171-27.823-.147-41.745-.066-2.257.013-3.773-.2-4.59-2.744a8.3,8.3,0,0,0-5.3-5.1A3.11,3.11,0,0,1,12.6,32.319,22.61,22.61,0,0,0,12.551,28c-.329-3.923-.5-7.613,4.48-9.038A4.542,4.542,0,0,0,19.593,16.1c.929-3.828,3.6-3.648,6.625-3.631,13.557.093,27.113.059,40.665-.014,2.21-.011,3.762.212,4.556,2.757A7.362,7.362,0,0,0,76.4,20.107c2.437.7,2.694,2.176,2.611,4.293-.131,3.237,0,6.48.019,9.722-.016,1.272-1.036,1.455-1.926,1.811M48.383,18.028a10.261,10.261,0,0,0-12.771,7.458A10.47,10.47,0,0,0,42.956,38.4a10.63,10.63,0,0,0,12.989-7.3,10.48,10.48,0,0,0-7.562-13.071M44.017,34.869a6.869,6.869,0,0,1-4.844-8.41A6.645,6.645,0,0,1,47.5,21.6a6.907,6.907,0,0,1,4.95,8.358,7.043,7.043,0,0,1-8.431,4.913m4.367-16.842a10.261,10.261,0,0,0-12.771,7.458A10.47,10.47,0,0,0,42.956,38.4a10.63,10.63,0,0,0,12.989-7.3,10.48,10.48,0,0,0-7.562-13.071M44.017,34.869a6.869,6.869,0,0,1-4.844-8.41A6.645,6.645,0,0,1,47.5,21.6a6.907,6.907,0,0,1,4.95,8.358,7.043,7.043,0,0,1-8.431,4.913m4.367-16.842a10.261,10.261,0,0,0-12.771,7.458A10.47,10.47,0,0,0,42.956,38.4a10.63,10.63,0,0,0,12.989-7.3,10.48,10.48,0,0,0-7.562-13.071M44.017,34.869a6.869,6.869,0,0,1-4.844-8.41A6.645,6.645,0,0,1,47.5,21.6a6.907,6.907,0,0,1,4.95,8.358,7.043,7.043,0,0,1-8.431,4.913m38.727,1.125c-.087-5.041-.05-10.091,0-15.13.021-1.954-.6-3.136-2.743-3.459-3.336-.5-5.507-2.479-5.894-5.878-.289-2.5-1.833-2.772-3.779-2.769-16.444.026-32.888.075-49.333.025-2.184,0-3.326.61-3.648,2.907a6.191,6.191,0,0,1-5.659,5.678c-2.384.307-2.952,1.565-2.915,3.656.092,4.914.113,9.838.142,14.765.006,1.751.448,2.972,2.535,3.212,3.533.41,5.608,2.493,6.165,6.03.192,1.255.515,2.391,1.534,2.478.764.089,1,.142,1.244.142q25.393.021,50.785.019c1.568,0,2.775-.413,2.967-2.356.353-3.73,2.546-5.825,6.206-6.393,1.729-.269,2.423-1.13,2.392-2.926m-5.637-.061a8.826,8.826,0,0,0-5.423,4.978c-.952,2.613-2.472,3.128-5.106,3.094-13.91-.171-27.823-.147-41.745-.066-2.257.013-3.773-.2-4.59-2.744a8.3,8.3,0,0,0-5.3-5.1A3.11,3.11,0,0,1,12.6,32.319,22.61,22.61,0,0,0,12.551,28c-.329-3.923-.5-7.613,4.48-9.038A4.542,4.542,0,0,0,19.593,16.1c.929-3.828,3.6-3.648,6.625-3.631,13.557.093,27.113.059,40.665-.014,2.21-.011,3.762.212,4.556,2.757A7.362,7.362,0,0,0,76.4,20.107c2.437.7,2.694,2.176,2.611,4.293-.131,3.237,0,6.48.019,9.722-.016,1.272-1.036,1.455-1.926,1.811M48.383,18.028a10.261,10.261,0,0,0-12.771,7.458A10.47,10.47,0,0,0,42.956,38.4a10.63,10.63,0,0,0,12.989-7.3,10.48,10.48,0,0,0-7.562-13.071M44.017,34.869a6.869,6.869,0,0,1-4.844-8.41A6.645,6.645,0,0,1,47.5,21.6a6.907,6.907,0,0,1,4.95,8.358,7.043,7.043,0,0,1-8.431,4.913m4.367-16.842a10.261,10.261,0,0,0-12.771,7.458A10.47,10.47,0,0,0,42.956,38.4a10.63,10.63,0,0,0,12.989-7.3,10.48,10.48,0,0,0-7.562-13.071M44.017,34.869a6.869,6.869,0,0,1-4.844-8.41A6.645,6.645,0,0,1,47.5,21.6a6.907,6.907,0,0,1,4.95,8.358,7.043,7.043,0,0,1-8.431,4.913m4.367-16.842a10.261,10.261,0,0,0-12.771,7.458A10.47,10.47,0,0,0,42.956,38.4a10.63,10.63,0,0,0,12.989-7.3,10.48,10.48,0,0,0-7.562-13.071M44.017,34.869a6.869,6.869,0,0,1-4.844-8.41A6.645,6.645,0,0,1,47.5,21.6a6.907,6.907,0,0,1,4.95,8.358,7.043,7.043,0,0,1-8.431,4.913m38.727,1.125c-.087-5.041-.05-10.091,0-15.13.021-1.954-.6-3.136-2.743-3.459-3.336-.5-5.507-2.479-5.894-5.878-.289-2.5-1.833-2.772-3.779-2.769-16.444.026-32.888.075-49.333.025-2.184,0-3.326.61-3.648,2.907a6.191,6.191,0,0,1-5.659,5.678c-2.384.307-2.952,1.565-2.915,3.656.092,4.914.113,9.838.142,14.765.006,1.751.448,2.972,2.535,3.212,3.533.41,5.608,2.493,6.165,6.03.192,1.255.515,2.391,1.534,2.478.764.089,1,.142,1.244.142q25.393.021,50.785.019c1.568,0,2.775-.413,2.967-2.356.353-3.73,2.546-5.825,6.206-6.393,1.729-.269,2.423-1.13,2.392-2.926m-5.637-.061a8.826,8.826,0,0,0-5.423,4.978c-.952,2.613-2.472,3.128-5.106,3.094-13.91-.171-27.823-.147-41.745-.066-2.257.013-3.773-.2-4.59-2.744a8.3,8.3,0,0,0-5.3-5.1A3.11,3.11,0,0,1,12.6,32.319,22.61,22.61,0,0,0,12.551,28c-.329-3.923-.5-7.613,4.48-9.038A4.542,4.542,0,0,0,19.593,16.1c.929-3.828,3.6-3.648,6.625-3.631,13.557.093,27.113.059,40.665-.014,2.21-.011,3.762.212,4.556,2.757A7.362,7.362,0,0,0,76.4,20.107c2.437.7,2.694,2.176,2.611,4.293-.131,3.237,0,6.48.019,9.722-.016,1.272-1.036,1.455-1.926,1.811M48.383,18.028a10.261,10.261,0,0,0-12.771,7.458A10.47,10.47,0,0,0,42.956,38.4a10.63,10.63,0,0,0,12.989-7.3,10.48,10.48,0,0,0-7.562-13.071M44.017,34.869a6.869,6.869,0,0,1-4.844-8.41A6.645,6.645,0,0,1,47.5,21.6a6.907,6.907,0,0,1,4.95,8.358,7.043,7.043,0,0,1-8.431,4.913m4.367-16.842a10.261,10.261,0,0,0-12.771,7.458A10.47,10.47,0,0,0,42.956,38.4a10.63,10.63,0,0,0,12.989-7.3,10.48,10.48,0,0,0-7.562-13.071M44.017,34.869a6.869,6.869,0,0,1-4.844-8.41A6.645,6.645,0,0,1,47.5,21.6a6.907,6.907,0,0,1,4.95,8.358,7.043,7.043,0,0,1-8.431,4.913m4.367-16.842a10.261,10.261,0,0,0-12.771,7.458A10.47,10.47,0,0,0,42.956,38.4a10.63,10.63,0,0,0,12.989-7.3,10.48,10.48,0,0,0-7.562-13.071M44.017,34.869a6.869,6.869,0,0,1-4.844-8.41A6.645,6.645,0,0,1,47.5,21.6a6.907,6.907,0,0,1,4.95,8.358,7.043,7.043,0,0,1-8.431,4.913m4.367-16.842a10.261,10.261,0,0,0-12.771,7.458A10.47,10.47,0,0,0,42.956,38.4a10.63,10.63,0,0,0,12.989-7.3,10.48,10.48,0,0,0-7.562-13.071M44.017,34.869a6.869,6.869,0,0,1-4.844-8.41A6.645,6.645,0,0,1,47.5,21.6a6.907,6.907,0,0,1,4.95,8.358,7.043,7.043,0,0,1-8.431,4.913m4.367-16.842a10.261,10.261,0,0,0-12.771,7.458A10.47,10.47,0,0,0,42.956,38.4a10.63,10.63,0,0,0,12.989-7.3,10.48,10.48,0,0,0-7.562-13.071M44.017,34.869a6.869,6.869,0,0,1-4.844-8.41A6.645,6.645,0,0,1,47.5,21.6a6.907,6.907,0,0,1,4.95,8.358,7.043,7.043,0,0,1-8.431,4.913m4.367-16.842a10.261,10.261,0,0,0-12.771,7.458A10.47,10.47,0,0,0,42.956,38.4a10.63,10.63,0,0,0,12.989-7.3,10.48,10.48,0,0,0-7.562-13.071M44.017,34.869a6.869,6.869,0,0,1-4.844-8.41A6.645,6.645,0,0,1,47.5,21.6a6.907,6.907,0,0,1,4.95,8.358,7.043,7.043,0,0,1-8.431,4.913m4.367-16.842a10.261,10.261,0,0,0-12.771,7.458A10.47,10.47,0,0,0,42.956,38.4a10.63,10.63,0,0,0,12.989-7.3,10.48,10.48,0,0,0-7.562-13.071M44.017,34.869a6.869,6.869,0,0,1-4.844-8.41A6.645,6.645,0,0,1,47.5,21.6a6.907,6.907,0,0,1,4.95,8.358,7.043,7.043,0,0,1-8.431,4.913m38.727,1.125c-.087-5.041-.05-10.091,0-15.13.021-1.954-.6-3.136-2.743-3.459-3.336-.5-5.507-2.479-5.894-5.878-.289-2.5-1.833-2.772-3.779-2.769-16.444.026-32.888.075-49.333.025-2.184,0-3.326.61-3.648,2.907a6.191,6.191,0,0,1-5.659,5.678c-2.384.307-2.952,1.565-2.915,3.656.092,4.914.113,9.838.142,14.765.006,1.751.448,2.972,2.535,3.212,3.533.41,5.608,2.493,6.165,6.03.192,1.255.515,2.391,1.534,2.478.764.089,1,.142,1.244.142q25.393.021,50.785.019c1.568,0,2.775-.413,2.967-2.356.353-3.73,2.546-5.825,6.206-6.393,1.729-.269,2.423-1.13,2.392-2.926m-5.637-.061a8.826,8.826,0,0,0-5.423,4.978c-.952,2.613-2.472,3.128-5.106,3.094-13.91-.171-27.823-.147-41.745-.066-2.257.013-3.773-.2-4.59-2.744a8.3,8.3,0,0,0-5.3-5.1A3.11,3.11,0,0,1,12.6,32.319,22.61,22.61,0,0,0,12.551,28c-.329-3.923-.5-7.613,4.48-9.038A4.542,4.542,0,0,0,19.593,16.1c.929-3.828,3.6-3.648,6.625-3.631,13.557.093,27.113.059,40.665-.014,2.21-.011,3.762.212,4.556,2.757A7.362,7.362,0,0,0,76.4,20.107c2.437.7,2.694,2.176,2.611,4.293-.131,3.237,0,6.48.019,9.722-.016,1.272-1.036,1.455-1.926,1.811M48.383,18.028a10.261,10.261,0,0,0-12.771,7.458A10.47,10.47,0,0,0,42.956,38.4a10.63,10.63,0,0,0,12.989-7.3,10.48,10.48,0,0,0-7.562-13.071M44.017,34.869a6.869,6.869,0,0,1-4.844-8.41A6.645,6.645,0,0,1,47.5,21.6a6.907,6.907,0,0,1,4.95,8.358,7.043,7.043,0,0,1-8.431,4.913m4.367-16.842a10.261,10.261,0,0,0-12.771,7.458A10.47,10.47,0,0,0,42.956,38.4a10.63,10.63,0,0,0,12.989-7.3,10.48,10.48,0,0,0-7.562-13.071M44.017,34.869a6.869,6.869,0,0,1-4.844-8.41A6.645,6.645,0,0,1,47.5,21.6a6.907,6.907,0,0,1,4.95,8.358,7.043,7.043,0,0,1-8.431,4.913m4.367-16.842a10.261,10.261,0,0,0-12.771,7.458A10.47,10.47,0,0,0,42.956,38.4a10.63,10.63,0,0,0,12.989-7.3,10.48,10.48,0,0,0-7.562-13.071M44.017,34.869a6.869,6.869,0,0,1-4.844-8.41A6.645,6.645,0,0,1,47.5,21.6a6.907,6.907,0,0,1,4.95,8.358,7.043,7.043,0,0,1-8.431,4.913m4.367-16.842a10.261,10.261,0,0,0-12.771,7.458A10.47,10.47,0,0,0,42.956,38.4a10.63,10.63,0,0,0,12.989-7.3,10.48,10.48,0,0,0-7.562-13.071M44.017,34.869a6.869,6.869,0,0,1-4.844-8.41A6.645,6.645,0,0,1,47.5,21.6a6.907,6.907,0,0,1,4.95,8.358,7.043,7.043,0,0,1-8.431,4.913m4.367-16.842a10.261,10.261,0,0,0-12.771,7.458A10.47,10.47,0,0,0,42.956,38.4a10.63,10.63,0,0,0,12.989-7.3,10.48,10.48,0,0,0-7.562-13.071M44.017,34.869a6.869,6.869,0,0,1-4.844-8.41A6.645,6.645,0,0,1,47.5,21.6a6.907,6.907,0,0,1,4.95,8.358,7.043,7.043,0,0,1-8.431,4.913m4.367-16.842a10.261,10.261,0,0,0-12.771,7.458A10.47,10.47,0,0,0,42.956,38.4a10.63,10.63,0,0,0,12.989-7.3,10.48,10.48,0,0,0-7.562-13.071M44.017,34.869a6.869,6.869,0,0,1-4.844-8.41A6.645,6.645,0,0,1,47.5,21.6a6.907,6.907,0,0,1,4.95,8.358,7.043,7.043,0,0,1-8.431,4.913m4.367-16.842a10.261,10.261,0,0,0-12.771,7.458A10.47,10.47,0,0,0,42.956,38.4a10.63,10.63,0,0,0,12.989-7.3,10.48,10.48,0,0,0-7.562-13.071M44.017,34.869a6.869,6.869,0,0,1-4.844-8.41A6.645,6.645,0,0,1,47.5,21.6a6.907,6.907,0,0,1,4.95,8.358,7.043,7.043,0,0,1-8.431,4.913m38.727,1.125c-.087-5.041-.05-10.091,0-15.13.021-1.954-.6-3.136-2.743-3.459-3.336-.5-5.507-2.479-5.894-5.878-.289-2.5-1.833-2.772-3.779-2.769-16.444.026-32.888.075-49.333.025-2.184,0-3.326.61-3.648,2.907a6.191,6.191,0,0,1-5.659,5.678c-2.384.307-2.952,1.565-2.915,3.656.092,4.914.113,9.838.142,14.765.006,1.751.448,2.972,2.535,3.212,3.533.41,5.608,2.493,6.165,6.03.192,1.255.515,2.391,1.534,2.478.764.089,1,.142,1.244.142q25.393.021,50.785.019c1.568,0,2.775-.413,2.967-2.356.353-3.73,2.546-5.825,6.206-6.393,1.729-.269,2.423-1.13,2.392-2.926m-5.637-.061a8.826,8.826,0,0,0-5.423,4.978c-.952,2.613-2.472,3.128-5.106,3.094-13.91-.171-27.823-.147-41.745-.066-2.257.013-3.773-.2-4.59-2.744a8.3,8.3,0,0,0-5.3-5.1A3.11,3.11,0,0,1,12.6,32.319,22.61,22.61,0,0,0,12.551,28c-.329-3.923-.5-7.613,4.48-9.038A4.542,4.542,0,0,0,19.593,16.1c.929-3.828,3.6-3.648,6.625-3.631,13.557.093,27.113.059,40.665-.014,2.21-.011,3.762.212,4.556,2.757A7.362,7.362,0,0,0,76.4,20.107c2.437.7,2.694,2.176,2.611,4.293-.131,3.237,0,6.48.019,9.722-.016,1.272-1.036,1.455-1.926,1.811M48.383,18.028a10.261,10.261,0,0,0-12.771,7.458A10.47,10.47,0,0,0,42.956,38.4a10.63,10.63,0,0,0,12.989-7.3,10.48,10.48,0,0,0-7.562-13.071M44.017,34.869a6.869,6.869,0,0,1-4.844-8.41A6.645,6.645,0,0,1,47.5,21.6a6.907,6.907,0,0,1,4.95,8.358,7.043,7.043,0,0,1-8.431,4.913m4.367-16.842a10.261,10.261,0,0,0-12.771,7.458A10.47,10.47,0,0,0,42.956,38.4a10.63,10.63,0,0,0,12.989-7.3,10.48,10.48,0,0,0-7.562-13.071M44.017,34.869a6.869,6.869,0,0,1-4.844-8.41A6.645,6.645,0,0,1,47.5,21.6a6.907,6.907,0,0,1,4.95,8.358,7.043,7.043,0,0,1-8.431,4.913m4.367-16.842a10.261,10.261,0,0,0-12.771,7.458A10.47,10.47,0,0,0,42.956,38.4a10.63,10.63,0,0,0,12.989-7.3,10.48,10.48,0,0,0-7.562-13.071M44.017,34.869a6.869,6.869,0,0,1-4.844-8.41A6.645,6.645,0,0,1,47.5,21.6a6.907,6.907,0,0,1,4.95,8.358,7.043,7.043,0,0,1-8.431,4.913m4.367-16.842a10.261,10.261,0,0,0-12.771,7.458A10.47,10.47,0,0,0,42.956,38.4a10.63,10.63,0,0,0,12.989-7.3,10.48,10.48,0,0,0-7.562-13.071M44.017,34.869a6.869,6.869,0,0,1-4.844-8.41A6.645,6.645,0,0,1,47.5,21.6a6.907,6.907,0,0,1,4.95,8.358,7.043,7.043,0,0,1-8.431,4.913m4.367-16.842a10.261,10.261,0,0,0-12.771,7.458A10.47,10.47,0,0,0,42.956,38.4a10.63,10.63,0,0,0,12.989-7.3,10.48,10.48,0,0,0-7.562-13.071M44.017,34.869a6.869,6.869,0,0,1-4.844-8.41A6.645,6.645,0,0,1,47.5,21.6a6.907,6.907,0,0,1,4.95,8.358,7.043,7.043,0,0,1-8.431,4.913" transform="translate(0 0)" fill="#26d0d0"/></g></svg>