<svg xmlns="http://www.w3.org/2000/svg" xmlns:xlink="http://www.w3.org/1999/xlink" width="82.889" height="56.43" viewBox="0 0 82.889 56.43"><defs><clipPath id="a"><rect width="82.889" height="56.429" fill="#26d0d0"/></clipPath></defs><g transform="translate(0 0)" clip-path="url(#a)"><path d="M71.819.183C55.248.1,38.67.072,22.094.023,17.18.012,12.262.009,8.611,0,2.517,1.494.09,4.772.042,10.882-.049,22.643.024,34.4.092,46.163.129,52.6,3.7,56.259,10.145,56.287q31.34.152,62.672.141c6.155,0,9.895-3.765,9.945-9.921q.16-17.637.117-35.275C82.858,3.662,79.391.222,71.819.183m7.3,24.126c-.151,7.311-.08,14.633-.063,21.957.014,3.1-1.172,5.324-4.573,6.491-3.379,0-7.086,0-10.806-.009q-26.278-.054-52.555-.131c-5.561-.016-7.364-1.8-7.377-7.3-.017-7.083.071-14.165,0-21.239-.026-2.08.488-2.939,2.79-2.923q34.914.243,69.823.261c2.252,0,2.814.682,2.765,2.9M79.08,15.1c-.03,2.2-.65,2.715-2.849,2.692-14.4-.162-28.8-.144-43.193-.186-9-.025-18-.087-27-.066-1.45,0-2.449-.215-2.068-1.945.239-1.119-.888-2.819,1.208-3.157,2.349.025,4.625.056,6.909.061q31.852.086,63.707.163c1.682,0,3.326-.237,3.289,2.439m-.418-7.089c-.32,1.945-2.195.892-3.283.893Q41.151,8.93,6.932,8.779c-.94,0-1.886-.111-2.939-.173C4.7,4.539,7.428,3.669,10.878,3.683q25.93.1,51.872.129c3.247.011,6.49.008,9.726.037a7.341,7.341,0,0,1,3.837.8c1.3.78,2.59,1.88,2.351,3.366" transform="translate(0 0)" fill="#26d0d0"/><path d="M72.839,36.569c-17.378-.1-34.751-.228-52.122-.111-9.563.06-8.482-1.687-8.638,8.544-.053,3.048.956,3.933,3.936,3.93,17.374-.051,34.752.176,52.13.087,10.413-.053,8.954,2.215,9.079-9.427,0-.241.022-.48.046-.9-.353-2.752-2.686-2.114-4.431-2.123m.791,5.97c0,2.664-1.075,2.857-3.167,2.842q-25.926-.165-51.836-.192c-1.322,0-2.881.329-2.793-1.724.048-1.155-.609-2.7,1.057-3.317,3.023-.009,5.9-.043,8.775-.033q22.316.063,44.626.178c1.458.007,3.327-.762,3.339,2.245" transform="translate(-3.353 -10.1)" fill="#26d0d0"/><path d="M37.8,62.545c.013,1.318-1.057,1.756-3.23,1.929-5.975-.048-12.936-.1-19.9-.134-1.271-.007-2.155-.477-2.195-1.81-.04-1.385.913-1.866,2.138-1.86q10.454.011,20.9.06c1.175.013,2.268.506,2.286,1.815" transform="translate(-3.463 -16.845)" fill="#26d0d0"/></g></svg>